<svg xmlns="http://www.w3.org/2000/svg" xmlns:xlink="http://www.w3.org/1999/xlink" width="500" zoomAndPan="magnify" viewBox="0 0 375 374.999991" height="500" preserveAspectRatio="xMidYMid meet" version="1.0"><defs><g/><clipPath id="ac61b47a68"><path d="M 58.121094 30.761719 L 316.8125 30.761719 L 316.8125 344.261719 L 58.121094 344.261719 Z M 58.121094 30.761719 " clip-rule="nonzero"/></clipPath></defs><g fill="#ffffff" fill-opacity="1"><g transform="translate(186.640417, 341.581369)"><g><path d="M 13.609375 0.542969 C 19.480469 0.542969 24.097656 -3.394531 25.183594 -9.265625 L 19.992188 -9.265625 C 19.140625 -6.277344 16.730469 -4.378906 13.609375 -4.378906 C 9.570312 -4.378906 6.550781 -7.570312 6.550781 -11.84375 C 6.550781 -16.121094 9.570312 -19.347656 13.609375 -19.347656 C 16.597656 -19.347656 18.972656 -17.582031 19.957031 -14.796875 L 25.082031 -14.796875 C 23.996094 -20.433594 19.378906 -24.265625 13.609375 -24.265625 C 6.617188 -24.265625 1.324219 -18.90625 1.324219 -11.84375 C 1.324219 -4.820312 6.617188 0.542969 13.609375 0.542969 Z M 13.609375 0.542969 "/></g></g></g><g fill="#ffffff" fill-opacity="1"><g transform="translate(212.807727, 341.581369)"><g><path d="M 12.863281 -18.734375 C 10.65625 -18.734375 8.722656 -17.921875 7.332031 -16.597656 L 7.332031 -24.910156 L 2.375 -24.910156 L 2.375 0 L 7.332031 0 L 7.332031 -9.605469 C 7.332031 -12.589844 8.960938 -14.390625 11.4375 -14.390625 C 13.644531 -14.390625 14.628906 -13.03125 14.628906 -10.285156 L 14.628906 0 L 19.582031 0 L 19.582031 -11.132812 C 19.582031 -15.78125 17.003906 -18.734375 12.863281 -18.734375 Z M 12.863281 -18.734375 "/></g></g></g><g fill="#ffffff" fill-opacity="1"><g transform="translate(234.562905, 341.581369)"><g><path d="M 17.308594 -18.328125 L 16.800781 -16.597656 C 15.203125 -17.988281 13.132812 -18.835938 10.757812 -18.835938 C 5.261719 -18.835938 1.152344 -14.695312 1.152344 -9.164062 C 1.152344 -3.632812 5.261719 0.542969 10.757812 0.542969 C 13.101562 0.542969 15.136719 -0.273438 16.699219 -1.664062 L 17.140625 0 L 21.007812 0 L 21.007812 -18.328125 Z M 11.167969 -4.140625 C 8.28125 -4.140625 6.175781 -6.3125 6.175781 -9.164062 C 6.175781 -12.046875 8.28125 -14.1875 11.167969 -14.1875 C 14.050781 -14.1875 16.15625 -12.046875 16.15625 -9.164062 C 16.15625 -6.277344 14.050781 -4.140625 11.167969 -4.140625 Z M 11.167969 -4.140625 "/></g></g></g><g fill="#ffffff" fill-opacity="1"><g transform="translate(257.98112, 341.581369)"><g><path d="M 11.335938 -4.414062 C 9.503906 -4.414062 8.484375 -5.429688 8.484375 -7.195312 L 8.484375 -14.324219 L 13.472656 -14.324219 L 13.472656 -18.328125 L 8.417969 -18.328125 L 8.417969 -23.078125 L 7.464844 -23.078125 L 0.238281 -15.410156 L 0.238281 -14.324219 L 3.53125 -14.324219 L 3.53125 -6.515625 C 3.53125 -2.476562 6.007812 0 10.046875 0 L 13.574219 0 L 13.574219 -4.414062 Z M 11.335938 -4.414062 "/></g></g></g><g fill="#ffffff" fill-opacity="1"><g transform="translate(272.575079, 341.581369)"><g/></g></g><g fill="#ffffff" fill-opacity="1"><g transform="translate(280.686604, 341.581369)"><g><path d="M 11.675781 -14.222656 L 16.324219 -21.652344 L 16.324219 -22.570312 L 1.933594 -22.570312 L 1.933594 -18.226562 L 9.671875 -18.226562 L 5.566406 -11.4375 L 5.566406 -10.519531 L 8.859375 -10.519531 C 10.929688 -10.519531 12.285156 -9.300781 12.285156 -7.398438 C 12.285156 -5.464844 10.996094 -4.105469 9.199219 -4.105469 C 7.464844 -4.105469 6.3125 -5.292969 6.246094 -7.09375 L 1.390625 -7.09375 C 1.527344 -2.648438 4.71875 0.40625 9.199219 0.40625 C 13.78125 0.40625 17.171875 -2.816406 17.171875 -7.230469 C 17.171875 -10.757812 15 -13.441406 11.675781 -14.222656 Z M 11.675781 -14.222656 "/></g></g></g><g fill="#ffffff" fill-opacity="1"><g transform="translate(299.387236, 341.581369)"><g><path d="M 2.003906 0 L 7.261719 0 L 7.261719 -5.292969 L 2.003906 -5.292969 Z M 2.003906 0 "/></g></g></g><g fill="#ffffff" fill-opacity="1"><g transform="translate(308.686641, 341.581369)"><g><path d="M 10.726562 0.40625 C 16.359375 0.40625 19.890625 -4.105469 19.890625 -11.300781 C 19.890625 -18.496094 16.394531 -22.976562 10.726562 -22.976562 C 5.089844 -22.976562 1.59375 -18.496094 1.59375 -11.300781 C 1.59375 -4.105469 5.125 0.40625 10.726562 0.40625 Z M 10.726562 -4.105469 C 7.976562 -4.105469 6.484375 -6.652344 6.484375 -11.300781 C 6.484375 -15.917969 7.976562 -18.464844 10.726562 -18.464844 C 13.472656 -18.464844 15 -15.882812 15 -11.269531 C 15 -6.617188 13.507812 -4.105469 10.726562 -4.105469 Z M 10.726562 -4.105469 "/></g></g></g><g clip-path="url(#ac61b47a68)"><path fill="#ffffff" d="M 281.621094 159.359375 C 281.621094 216.605469 229.796875 263.066406 165.878906 263.066406 C 136.238281 263.066406 107.976562 253.660156 84.539062 235.605469 C 78.023438 230.523438 71.945312 224.945312 66.871094 218.675781 C 73.261719 240.242188 82.972656 261.121094 96.070312 279.617188 C 116.625 308.835938 145.199219 332.289062 180.730469 344.261719 L 180.730469 296.234375 C 180.730469 292.535156 183.738281 289.527344 187.4375 289.527344 C 223.15625 289.527344 255.550781 274.980469 278.988281 251.53125 C 302.300781 228.078125 316.777344 195.851562 316.777344 160.113281 C 316.777344 124.375 302.238281 92.019531 278.925781 68.570312 C 255.488281 45.308594 223.15625 30.761719 187.4375 30.761719 C 151.71875 30.761719 119.507812 45.308594 96.070312 68.570312 C 72.632812 92.019531 58.097656 124.4375 58.097656 160.175781 C 58.097656 162.746094 58.285156 165.441406 58.285156 168.136719 C 60.855469 190.460938 73.886719 210.398438 92.875 224.945312 C 95.132812 226.699219 97.511719 228.269531 99.894531 229.898438 L 99.894531 147.386719 C 99.894531 125.1875 110.109375 105.125 126.339844 90.578125 C 142.441406 76.21875 164.625 67.253906 189.191406 67.253906 C 207.363281 67.253906 224.597656 72.207031 239.070312 80.984375 C 253.609375 89.890625 265.203125 102.554688 272.097656 117.976562 C 275.105469 124.375 277.546875 131.207031 279.113281 137.917969 C 280.867188 145.003906 281.621094 152.148438 281.621094 159.359375 Z M 281.621094 159.359375 " fill-opacity="1" fill-rule="nonzero"/></g><path fill="#ffffff" d="M 165.878906 249.523438 C 222.339844 249.523438 268.085938 209.144531 268.085938 159.359375 C 268.085938 153.152344 267.269531 147.070312 266.019531 141.175781 C 264.578125 135.09375 262.507812 129.203125 259.8125 123.621094 L 259.625 123.433594 C 254.046875 110.644531 244.148438 99.984375 232.054688 92.648438 C 219.769531 85.125 204.792969 80.859375 189.191406 80.859375 C 168.136719 80.859375 149.023438 88.507812 135.300781 100.671875 C 121.890625 112.585938 113.429688 129.203125 113.429688 147.386719 L 113.429688 237.546875 C 129.347656 245.007812 147.519531 249.523438 165.878906 249.523438 Z M 164 180.113281 C 161.617188 181.054688 159.050781 181.683594 156.355469 181.683594 C 145.011719 181.683594 135.925781 172.402344 135.925781 161.242188 C 135.925781 149.894531 145.011719 140.800781 156.355469 140.800781 C 167.507812 140.800781 176.785156 149.894531 176.785156 161.242188 C 176.785156 165.566406 175.34375 169.519531 173.085938 172.902344 C 172.773438 169.390625 169.765625 166.695312 166.253906 166.695312 C 162.433594 166.695312 159.238281 169.707031 159.238281 173.53125 C 159.175781 176.601562 161.242188 179.300781 164 180.113281 Z M 218.644531 181.683594 C 207.300781 181.683594 198.214844 172.402344 198.214844 161.242188 C 198.214844 149.894531 207.300781 140.800781 218.644531 140.800781 C 229.984375 140.800781 239.070312 149.894531 239.070312 161.242188 C 239.070312 165.566406 237.820312 169.519531 235.375 172.902344 C 235.0625 169.390625 232.054688 166.695312 228.542969 166.695312 C 224.722656 166.695312 221.714844 169.707031 221.714844 173.53125 C 221.714844 176.539062 223.65625 179.300781 226.476562 180.050781 C 224.09375 181.054688 221.402344 181.683594 218.644531 181.683594 Z M 218.644531 181.683594 " fill-opacity="1" fill-rule="nonzero"/></svg>